{"title":"Gladiator *2000* (60 FPS) [1080p.BDRip.x264.DTS/AC3.mkv]","uid":9215849,"size":21950746901,"categoryP":"video","categoryS":"hd___movies","magnet":"?xt=urn:btih:a9c2b855e4f1a37e508664aa46f6d1ce59b7137c&amp;dn=Gladiator+%2A2000%2A+%2860+FPS%29+%5B1080p.BDRip.x264.DTS%2FAC3.mkv%5D&amp;tr=udp%3A%2F%2Ftracker.openbittorrent.com%3A80&amp;tr=udp%3A%2F%2Fopen.demonii.com%3A1337&amp;tr=udp%3A%2F%2Ftracker.coppersurfer.tk%3A6969&amp;tr=udp%3A%2F%2Fexodus.desync.com%3A6969","seeders":3,"leechers":4,"uploader":"sonywo","files":1,"time":1384856955,"description":"Video\n\nFormat : AVC\nFormat/Info : Advanced Video Codec\nFormat profile : &lt;a class=&quot;__cf_email__&quot; href=&quot;/cdn-cgi/l/email-protection&quot; data-cfemail=&quot;81c9e8e6e9c1cdb5afb0&quot;&gt;[email&amp;#160;protected]&lt;/a&gt;&lt;script cf-hash='f9e31' type=&quot;text/javascript&quot;&gt;\n/* &lt;![CDATA[ */!function(){try{var t=&quot;currentScript&quot;in document?document.currentScript:function(){for(var t=document.getElementsByTagName(&quot;script&quot;),e=t.length;e--;)if(t[e].getAttribute(&quot;cf-hash&quot;))return t[e]}();if(t&amp;&amp;t.previousSibling){var e,r,n,i,c=t.previousSibling,a=c.getAttribute(&quot;data-cfemail&quot;);if(a){for(e=&quot;&quot;,r=parseInt(a.substr(0,2),16),n=2;a.length-n;n+=2)i=parseInt(a.substr(n,2),16)^r,e+=String.fromCharCode(i);e=document.createTextNode(e),c.parentNode.replaceChild(e,c)}}}catch(u){}}();/* ]]&gt; */&lt;/script&gt;\nFormat settings, CABAC : Yes\nFormat settings, ReFrames : 5 frames\nCodec ID : V_MPEG4/ISO/AVC\nDuration : 2h 50mn\nBit rate : 14.5 Mbps\nWidth : 1 920 pixels\nHeight : 816 pixels\nDisplay aspect ratio : 2.35:1\nFrame rate : 59.940 fps\nColor space : YUV\nChroma subsampling : 4:2:0\nBit depth : 8 bits\nScan type : Progressive\nBits/(Pixel*Frame) : 0.155\nStream size : 16.9 GiB (83%)\nLanguage : English\nDefault : Yes\nForced : No\n\nAudio 1\n\nFormat : AC-3\nFormat/Info : Audio Coding 3\nMode extension : CM (complete main)\nFormat settings, Endianness : Big\nCodec ID : A_AC3\nDuration : 2h 50mn\nBit rate mode : Constant\nBit rate : 448 Kbps\nChannel(s) : 6 channels\nChannel positions : Front: L C R, Side: L R, LFE\nSampling rate : 48.0 KHz\nBit depth : 16 bits\nCompression mode : Lossy\nStream size : 548 MiB (3%)\nTitle : ????????\nLanguage : English\nDefault : Yes\nForced : No\n\nAudio 2\n\nFormat : AC-3\nFormat/Info : Audio Coding 3\nMode extension : CM (complete main)\nFormat settings, Endianness : Big\nCodec ID : A_AC3\nDuration : 2h 50mn\nBit rate mode : Constant\nBit rate : 640 Kbps\nChannel(s) : 6 channels\nChannel positions : Front: L C R, Side: L R, LFE\nSampling rate : 48.0 KHz\nBit depth : 16 bits\nCompression mode : Lossy\nStream size : 783 MiB (4%)\nDefault : No\nForced : No\n\nAudio 3\n\nFormat : DTS\nFormat/Info : Digital Theater Systems\nCodec ID : A_DTS\nDuration : 2h 50mn\nBit rate mode : Constant\nBit rate : 1 510 Kbps\nChannel(s) : 6 channels\nChannel positions : Front: L C R, Side: L R, LFE\nSampling rate : 48.0 KHz\nBit depth : 24 bits\nCompression mode : Lossy\nDelay relative to video : 11ms\nStream size : 1.80 GiB (9%)\nTitle : Gladiator 2000 Remastered Ext Cut DTS 5.1 Original\nLanguage : English\nDefault : No\nForced : No\n\nText 1\n\nFormat : UTF-8\nCodec ID : S_TEXT/UTF8\nCodec ID/Info : UTF-8 Plain Text\nTitle : Full\nLanguage : English\nDefault : Yes\nForced : No\n\nText 2\n\nFormat : UTF-8\nCodec ID : S_TEXT/UTF8\nCodec ID/Info : UTF-8 Plain Text\nLanguage : Polskie\nDefault : No\nForced : No\n\nText 3\n\nFormat : UTF-8\nCodec ID : S_TEXT/UTF8\nCodec ID/Info : UTF-8 Plain Text\nLanguage : Niemieckie\nDefault : No\nForced : No\n","torrent":{"xt":"urn:btih:a9c2b855e4f1a37e508664aa46f6d1ce59b7137c","amp;dn":"Gladiator+%2A2000%2A+%2860+FPS%29+%5B1080p.BDRip.x264.DTS%2FAC3.mkv%5D","amp;tr":["udp%3A%2F%2Ftracker.openbittorrent.com%3A80","udp%3A%2F%2Fopen.demonii.com%3A1337","udp%3A%2F%2Ftracker.coppersurfer.tk%3A6969","udp%3A%2F%2Fexodus.desync.com%3A6969"],"infoHash":"a9c2b855e4f1a37e508664aa46f6d1ce59b7137c","infoHashBuffer":{"type":"Buffer","data":[169,194,184,85,228,241,163,126,80,134,100,170,70,246,209,206,89,183,19,124]},"announce":[],"urlList":[]}}